<svg xmlns="http://www.w3.org/2000/svg" width="176.559" height="42.569" viewBox="0 0 176.559 42.569"><defs><style>.a{fill:#f9f9f9;}</style></defs><g transform="translate(-224.5 -191.533)"><g transform="translate(224.5 191.533)"><path class="a" d="M173.876,23.935l-7.567-10.313c-.318.023-.643.04-.973.053s-.672.017-1.025.017h-5.422l0-2.038h3.087q2.817,0,4.764-.166a10.428,10.428,0,0,0,3.16-.679,3.509,3.509,0,0,0,1.75-1.446,4.939,4.939,0,0,0,.54-2.484,5.059,5.059,0,0,0-.53-2.482,3.467,3.467,0,0,0-1.724-1.47,10.385,10.385,0,0,0-3.134-.707q-1.939-.183-4.758-.183h-7.276v21.9h-2.137V0h11.684a21.291,21.291,0,0,1,4.6.427,8.66,8.66,0,0,1,3.134,1.287,5.125,5.125,0,0,1,1.783,2.153,7.43,7.43,0,0,1,.563,3.012,6.372,6.372,0,0,1-1.381,4.295,7.546,7.546,0,0,1-4.459,2.2l8.012,10.557Zm-40.667,0L121.272,0h2.436L134.9,22.438,146.086,0H148.5L136.462,23.935Zm-11.808,0L110.152,2.108l-6.971,13.518h9.19l1.034,2H102.132l-3.245,6.306H96.535L108.882,0h2.524l12.348,23.935Zm-49.63,0V0H91.321V2.038H74.093v8.24H90.451V12.3H74.093v9.6H91.577v2.037Zm-30.513,0V6.226h2.2V21.932H53.7a22.555,22.555,0,0,0,4.733-.462,9.466,9.466,0,0,0,3.686-1.6,7.639,7.639,0,0,0,2.4-3.066,11.939,11.939,0,0,0,.86-4.852,13.823,13.823,0,0,0-.387-3.45,8.676,8.676,0,0,0-1.108-2.6,6.954,6.954,0,0,0-1.759-1.857,9.3,9.3,0,0,0-2.34-1.212,13.525,13.525,0,0,0-2.833-.651A25.731,25.731,0,0,0,53.7,1.986H43.458l-2.2.006V0H53.7a25.1,25.1,0,0,1,5.525.575,11.657,11.657,0,0,1,4.424,1.96A9.359,9.359,0,0,1,66.584,6.22a13.634,13.634,0,0,1,1.063,5.731,15.731,15.731,0,0,1-.482,4.084A10.615,10.615,0,0,1,65.8,19.146a8.863,8.863,0,0,1-2.138,2.247,11.042,11.042,0,0,1-2.8,1.479,16.424,16.424,0,0,1-3.342.81,27.327,27.327,0,0,1-3.791.253Zm-8.169,0-21-21.079V23.935h-2.2V0h2.427l21,21.148V0h2.162V23.935ZM0,23.929V0H2.473V23.929Z" transform="translate(0 0)"/></g><g transform="translate(224.567 221.911)"><path class="a" d="M230.192,269.147a1.4,1.4,0,0,0-.543-1.13,5.555,5.555,0,0,0-1.843-.836,6.168,6.168,0,0,1-2.164-.973,1.908,1.908,0,0,1-.742-1.585,2.046,2.046,0,0,1,.83-1.676,3.312,3.312,0,0,1,2.118-.656,3.132,3.132,0,0,1,2.179.742,2.349,2.349,0,0,1,.8,1.883l-.012.037h-.684a1.889,1.889,0,0,0-.638-1.459,2.353,2.353,0,0,0-1.645-.58,2.465,2.465,0,0,0-1.627.491,1.514,1.514,0,0,0-.589,1.206,1.376,1.376,0,0,0,.534,1.114,5.46,5.46,0,0,0,1.883.815,6.151,6.151,0,0,1,2.143,1.007,1.941,1.941,0,0,1,.739,1.587,1.97,1.97,0,0,1-.864,1.669,3.589,3.589,0,0,1-2.176.632,3.953,3.953,0,0,1-2.289-.669,2.146,2.146,0,0,1-.946-1.95l.012-.037h.678a1.706,1.706,0,0,0,.775,1.536,3.178,3.178,0,0,0,1.77.5,2.753,2.753,0,0,0,1.661-.467A1.431,1.431,0,0,0,230.192,269.147Z" transform="translate(-224.654 -261.785)"/><path class="a" d="M247.645,274.392a2.645,2.645,0,0,1-2.082-.907,3.391,3.391,0,0,1-.8-2.329v-.336a3.458,3.458,0,0,1,.809-2.356,2.555,2.555,0,0,1,2.005-.928,2.306,2.306,0,0,1,1.859.772,3.1,3.1,0,0,1,.656,2.078v.568h-4.6v.2a2.989,2.989,0,0,0,.571,1.874,1.877,1.877,0,0,0,1.578.745,3.021,3.021,0,0,0,1.111-.2,2.419,2.419,0,0,0,.842-.534l.311.5a2.713,2.713,0,0,1-.913.608A3.433,3.433,0,0,1,247.645,274.392Zm-.067-6.233a1.779,1.779,0,0,0-1.385.6,2.6,2.6,0,0,0-.635,1.532l.018.037h3.784v-.153a2.235,2.235,0,0,0-.461-1.45A1.6,1.6,0,0,0,247.578,268.159Z" transform="translate(-235.986 -264.741)"/><path class="a" d="M266.237,268.288l-.519-.037a1.655,1.655,0,0,0-1.132.388,2.133,2.133,0,0,0-.632,1.065v4.56h-.732v-6.6h.641l.092,1.1v.074a2.373,2.373,0,0,1,.769-.952,1.933,1.933,0,0,1,1.148-.342,1.514,1.514,0,0,1,.256.021,1.759,1.759,0,0,1,.2.046Z" transform="translate(-246.387 -264.741)"/><path class="a" d="M277.1,272.767l.214.776h.036l.232-.776,1.794-4.951h.757l-2.509,6.6h-.586l-2.515-6.6h.757Z" transform="translate(-252.753 -264.898)"/><path class="a" d="M293.927,262.157H293.2v-1.026h.726Zm0,8.5H293.2v-6.6h.726Z" transform="translate(-263.281 -261.131)"/><path class="a" d="M303,267.659l.067,1.148a2.418,2.418,0,0,1,.861-.937,2.375,2.375,0,0,1,1.276-.333,2.035,2.035,0,0,1,1.636.656,3.1,3.1,0,0,1,.562,2.048v4.023h-.732v-4.017a2.394,2.394,0,0,0-.424-1.605,1.541,1.541,0,0,0-1.206-.47,1.953,1.953,0,0,0-1.261.385,2.153,2.153,0,0,0-.693,1.031v4.676h-.732v-6.6Z" transform="translate(-268.441 -264.741)"/><path class="a" d="M320.564,271.016a4.313,4.313,0,0,1,.669-2.53,2.153,2.153,0,0,1,1.865-.949,2.38,2.38,0,0,1,1.221.3,2.409,2.409,0,0,1,.855.858l.1-1.038h.592V274.3a2.608,2.608,0,0,1-.7,1.948,2.694,2.694,0,0,1-1.972.684,4.864,4.864,0,0,1-1.017-.116,3.98,3.98,0,0,1-.943-.317l.14-.617a3.77,3.77,0,0,0,.846.3,4.4,4.4,0,0,0,.961.1,1.939,1.939,0,0,0,1.459-.5,2.05,2.05,0,0,0,.482-1.478v-.934a2.28,2.28,0,0,1-.852.76,2.573,2.573,0,0,1-1.193.265,2.191,2.191,0,0,1-1.852-.885,3.825,3.825,0,0,1-.669-2.362Zm.733.128a3.332,3.332,0,0,0,.482,1.9,1.632,1.632,0,0,0,1.447.708,2.066,2.066,0,0,0,1.169-.315,2.092,2.092,0,0,0,.735-.864v-3.15a2.309,2.309,0,0,0-.711-.907,1.9,1.9,0,0,0-1.181-.351,1.6,1.6,0,0,0-1.453.794,3.863,3.863,0,0,0-.488,2.051Z" transform="translate(-278.7 -264.741)"/><path class="a" d="M349.989,263.942v1.691h1.453v.6h-1.453v4.3a1.408,1.408,0,0,0,.235.919.786.786,0,0,0,.626.271,2.08,2.08,0,0,0,.259-.015q.125-.015.3-.052l.11.543a1.523,1.523,0,0,1-.363.119,2.075,2.075,0,0,1-.43.046,1.371,1.371,0,0,1-1.084-.44,2.074,2.074,0,0,1-.387-1.392v-4.3h-1.142v-.6h1.142v-1.691Z" transform="translate(-294.222 -262.715)"/><path class="a" d="M362.614,265.172a2.363,2.363,0,0,1,2.161-1.245,2,2,0,0,1,1.6.647,3.023,3.023,0,0,1,.559,2.008v4.072H366.2V266.57a2.268,2.268,0,0,0-.424-1.541,1.5,1.5,0,0,0-1.169-.467,2.047,2.047,0,0,0-1.267.375,2.165,2.165,0,0,0-.729,1v4.712h-.732v-9.523h.732Z" transform="translate(-301.984 -261.131)"/><path class="a" d="M382.718,274.392a2.646,2.646,0,0,1-2.082-.907,3.39,3.39,0,0,1-.8-2.329v-.336a3.458,3.458,0,0,1,.809-2.356,2.555,2.555,0,0,1,2.006-.928,2.305,2.305,0,0,1,1.859.772,3.1,3.1,0,0,1,.656,2.078v.568h-4.6v.2a2.992,2.992,0,0,0,.57,1.874,1.877,1.877,0,0,0,1.578.745,3.021,3.021,0,0,0,1.111-.2,2.419,2.419,0,0,0,.842-.534l.311.5a2.709,2.709,0,0,1-.913.608A3.432,3.432,0,0,1,382.718,274.392Zm-.067-6.233a1.78,1.78,0,0,0-1.386.6,2.6,2.6,0,0,0-.635,1.532l.018.037h3.784v-.153a2.235,2.235,0,0,0-.46-1.45A1.6,1.6,0,0,0,382.65,268.159Z" transform="translate(-312.101 -264.741)"/><path class="a" d="M408.855,265.172a2.364,2.364,0,0,1,2.161-1.245,2,2,0,0,1,1.6.647,3.023,3.023,0,0,1,.559,2.008v4.072h-.733V266.57a2.266,2.266,0,0,0-.424-1.541,1.5,1.5,0,0,0-1.169-.467,2.046,2.046,0,0,0-1.267.375,2.159,2.159,0,0,0-.729,1v4.712h-.732v-9.523h.732Z" transform="translate(-328.041 -261.131)"/><path class="a" d="M427.866,262.157h-.726v-1.026h.726Zm0,8.5h-.726v-6.6h.726Z" transform="translate(-338.757 -261.131)"/><path class="a" d="M435.7,271.016a4.316,4.316,0,0,1,.668-2.53,2.153,2.153,0,0,1,1.865-.949,2.379,2.379,0,0,1,1.22.3,2.4,2.4,0,0,1,.855.858l.1-1.038H441V274.3a2.607,2.607,0,0,1-.7,1.948,2.694,2.694,0,0,1-1.971.684,4.858,4.858,0,0,1-1.017-.116,3.981,3.981,0,0,1-.943-.317l.14-.617a3.77,3.77,0,0,0,.845.3,4.412,4.412,0,0,0,.962.1,1.941,1.941,0,0,0,1.459-.5,2.05,2.05,0,0,0,.482-1.478v-.934a2.279,2.279,0,0,1-.852.76,2.578,2.578,0,0,1-1.194.265,2.191,2.191,0,0,1-1.852-.885,3.828,3.828,0,0,1-.668-2.362Zm.732.128a3.333,3.333,0,0,0,.482,1.9,1.633,1.633,0,0,0,1.447.708,2.066,2.066,0,0,0,1.169-.315,2.1,2.1,0,0,0,.736-.864v-3.15a2.317,2.317,0,0,0-.711-.907,1.9,1.9,0,0,0-1.182-.351,1.6,1.6,0,0,0-1.453.794,3.864,3.864,0,0,0-.488,2.051Z" transform="translate(-343.579 -264.741)"/><path class="a" d="M455.837,265.172A2.364,2.364,0,0,1,458,263.927a2,2,0,0,1,1.6.647,3.023,3.023,0,0,1,.558,2.008v4.072h-.732V266.57a2.268,2.268,0,0,0-.424-1.541,1.5,1.5,0,0,0-1.169-.467,2.043,2.043,0,0,0-1.266.375,2.157,2.157,0,0,0-.73,1v4.712H455.1v-9.523h.732Z" transform="translate(-354.516 -261.131)"/><path class="a" d="M487.449,274.264c-.045-.232-.078-.431-.1-.6a3.95,3.95,0,0,1-.034-.513,2.674,2.674,0,0,1-.958.888,2.812,2.812,0,0,1-1.416.351,2.076,2.076,0,0,1-1.5-.516,1.854,1.854,0,0,1-.535-1.4,1.685,1.685,0,0,1,.775-1.435,3.409,3.409,0,0,1,2.014-.55h1.624v-.818a1.418,1.418,0,0,0-.448-1.111,1.83,1.83,0,0,0-1.267-.4,1.89,1.89,0,0,0-1.212.366,1.13,1.13,0,0,0-.461.922h-.677l-.013-.037a1.565,1.565,0,0,1,.638-1.309,2.653,2.653,0,0,1,1.761-.564,2.621,2.621,0,0,1,1.746.555,1.968,1.968,0,0,1,.659,1.593v3.247a5.639,5.639,0,0,0,.04.678,4.239,4.239,0,0,0,.131.653Zm-2.429-.519a2.619,2.619,0,0,0,1.459-.4,1.992,1.992,0,0,0,.836-1.028v-1.264h-1.629a2.426,2.426,0,0,0-1.471.424,1.24,1.24,0,0,0-.58,1.023,1.175,1.175,0,0,0,.369.9A1.442,1.442,0,0,0,485.019,273.745Z" transform="translate(-370.179 -264.741)"/><path class="a" d="M503.94,273.776a1.98,1.98,0,0,0,1.242-.416,1.373,1.373,0,0,0,.54-1.154h.653l.012.037a1.846,1.846,0,0,1-.72,1.533,2.632,2.632,0,0,1-1.728.616,2.473,2.473,0,0,1-2.055-.928,3.7,3.7,0,0,1-.736-2.375v-.257a3.7,3.7,0,0,1,.733-2.368,2.463,2.463,0,0,1,2.051-.928,2.539,2.539,0,0,1,1.77.641,2.093,2.093,0,0,1,.684,1.685l-.012.037h-.653a1.63,1.63,0,0,0-.519-1.267,1.814,1.814,0,0,0-1.27-.473,1.727,1.727,0,0,0-1.544.763,3.383,3.383,0,0,0-.506,1.91v.257a3.4,3.4,0,0,0,.506,1.926A1.735,1.735,0,0,0,503.94,273.776Z" transform="translate(-380.463 -264.741)"/><path class="a" d="M520.341,265.172a2.363,2.363,0,0,1,2.161-1.245,2,2,0,0,1,1.6.647,3.023,3.023,0,0,1,.558,2.008v4.072h-.732V266.57a2.268,2.268,0,0,0-.424-1.541,1.5,1.5,0,0,0-1.169-.467,2.044,2.044,0,0,0-1.266.375,2.156,2.156,0,0,0-.73,1v4.712h-.732v-9.523h.732Z" transform="translate(-390.864 -261.131)"/><path class="a" d="M539.351,262.157h-.726v-1.026h.726Zm0,8.5h-.726v-6.6h.726Z" transform="translate(-401.581 -261.131)"/><path class="a" d="M549.811,274.392a2.646,2.646,0,0,1-2.082-.907,3.391,3.391,0,0,1-.8-2.329v-.336a3.454,3.454,0,0,1,.809-2.356,2.554,2.554,0,0,1,2-.928,2.307,2.307,0,0,1,1.859.772,3.1,3.1,0,0,1,.656,2.078v.568h-4.6v.2a2.986,2.986,0,0,0,.571,1.874,1.876,1.876,0,0,0,1.578.745,3.022,3.022,0,0,0,1.111-.2,2.418,2.418,0,0,0,.842-.534l.312.5a2.709,2.709,0,0,1-.913.608A3.434,3.434,0,0,1,549.811,274.392Zm-.068-6.233a1.779,1.779,0,0,0-1.385.6,2.6,2.6,0,0,0-.635,1.532l.018.037h3.784v-.153a2.238,2.238,0,0,0-.461-1.45A1.6,1.6,0,0,0,549.743,268.159Z" transform="translate(-406.26 -264.741)"/><path class="a" d="M566.186,272.767l.213.776h.037l.232-.776,1.794-4.951h.757l-2.509,6.6h-.586l-2.515-6.6h.757Z" transform="translate(-415.66 -264.898)"/><path class="a" d="M583.929,274.392a2.646,2.646,0,0,1-2.082-.907,3.39,3.39,0,0,1-.8-2.329v-.336a3.456,3.456,0,0,1,.809-2.356,2.554,2.554,0,0,1,2.005-.928,2.305,2.305,0,0,1,1.859.772,3.1,3.1,0,0,1,.656,2.078v.568h-4.6v.2a2.989,2.989,0,0,0,.571,1.874,1.876,1.876,0,0,0,1.578.745,3.022,3.022,0,0,0,1.111-.2,2.425,2.425,0,0,0,.842-.534l.311.5a2.711,2.711,0,0,1-.912.608A3.438,3.438,0,0,1,583.929,274.392Zm-.067-6.233a1.78,1.78,0,0,0-1.386.6,2.6,2.6,0,0,0-.635,1.532l.018.037h3.785v-.153a2.238,2.238,0,0,0-.461-1.45A1.6,1.6,0,0,0,583.862,268.159Z" transform="translate(-425.486 -264.741)"/><path class="a" d="M602.521,268.288l-.519-.037a1.657,1.657,0,0,0-1.133.388,2.138,2.138,0,0,0-.632,1.065v4.56h-.732v-6.6h.641l.092,1.1v.074a2.373,2.373,0,0,1,.77-.952,1.932,1.932,0,0,1,1.148-.342,1.514,1.514,0,0,1,.256.021,1.8,1.8,0,0,1,.2.046Z" transform="translate(-435.887 -264.741)"/><path class="a" d="M615.72,272.573a1.06,1.06,0,0,0-.381-.809,3.128,3.128,0,0,0-1.377-.564,4.508,4.508,0,0,1-1.742-.669,1.394,1.394,0,0,1-.571-1.187,1.6,1.6,0,0,1,.638-1.282,2.576,2.576,0,0,1,1.688-.525,2.641,2.641,0,0,1,1.764.558,1.651,1.651,0,0,1,.629,1.377l-.012.037h-.678a1.218,1.218,0,0,0-.467-.946,1.826,1.826,0,0,0-1.236-.4,1.789,1.789,0,0,0-1.2.348,1.047,1.047,0,0,0-.4.812.942.942,0,0,0,.345.748,3.387,3.387,0,0,0,1.376.522,4.483,4.483,0,0,1,1.755.715,1.475,1.475,0,0,1,.6,1.233,1.615,1.615,0,0,1-.669,1.34,2.815,2.815,0,0,1-1.767.516,2.86,2.86,0,0,1-1.89-.574,1.625,1.625,0,0,1-.65-1.367l.012-.036h.672a1.209,1.209,0,0,0,.583,1.038,2.426,2.426,0,0,0,1.273.324,2,2,0,0,0,1.251-.354A1.047,1.047,0,0,0,615.72,272.573Z" transform="translate(-442.629 -264.741)"/></g></g></svg>