<?xml version="1.0" standalone="no"?>
<!DOCTYPE svg PUBLIC "-//W3C//DTD SVG 20010904//EN"
 "http://www.w3.org/TR/2001/REC-SVG-20010904/DTD/svg10.dtd">
<svg version="1.0" xmlns="http://www.w3.org/2000/svg"
 width="64px" height="64px" viewBox="0 0 450.000000 188.000000"
 preserveAspectRatio="xMidYMid meet">
<metadata>
Created by potrace 1.16, written by Peter Selinger 2001-2019
</metadata>
<g transform="translate(0.000000,188.000000) scale(0.100000,-0.100000)"
fill="#000000" stroke="none">
<path d="M229 1858 c-23 -6 -40 -18 -47 -34 -7 -13 -18 -24 -26 -24 -23 0 -38
-37 -35 -87 2 -30 -1 -48 -9 -51 -16 -5 -15 -35 0 -50 10 -10 8 -14 -10 -18
-26 -7 -28 -21 -5 -46 16 -18 16 -19 -5 -25 -22 -5 -32 -43 -12 -43 6 0 10 -7
10 -15 0 -8 -7 -15 -15 -15 -18 0 -20 -36 -2 -44 9 -3 7 -9 -5 -19 -21 -17
-23 -38 -6 -55 10 -10 8 -14 -10 -18 -25 -7 -30 -32 -7 -40 21 -8 19 -21 -5
-29 -22 -7 -27 -40 -7 -49 8 -4 5 -10 -11 -22 -17 -13 -22 -26 -22 -61 0 -84
45 -141 159 -198 48 -24 53 -29 47 -53 -3 -15 -9 -63 -13 -106 l-6 -80 33 -27
c30 -26 34 -49 7 -49 -25 0 -36 -35 -25 -80 8 -31 8 -63 -1 -120 -9 -60 -9
-89 0 -124 9 -35 9 -61 0 -105 -22 -109 31 -180 123 -167 52 8 131 45 174 80
28 24 32 34 32 74 0 64 -25 243 -50 369 l-21 103 32 88 c45 125 66 161 93 168
46 11 79 58 84 119 2 30 9 55 14 55 6 0 8 13 4 31 -4 24 -2 35 11 44 15 11 15
15 3 30 -12 15 -12 18 3 26 20 11 23 49 5 49 -7 0 -2 9 12 20 22 17 23 22 13
39 -17 27 -16 31 2 31 17 0 20 35 4 45 -6 5 -4 11 7 19 12 9 15 20 10 39 -4
18 -2 27 5 27 7 0 9 11 6 30 -4 16 -2 32 3 35 6 3 10 30 10 58 0 127 -107 241
-260 276 -56 13 -242 12 -291 -1z m56 -38 c-5 -16 -10 -19 -18 -11 -7 7 -6 15
3 26 17 20 24 13 15 -15z m-69 -28 c-20 -20 -22 -1 -3 28 10 18 12 18 15 4 2
-9 -3 -24 -12 -32z m130 -72 c12 0 13 -8 8 -34 -5 -31 -3 -35 18 -38 30 -4 26
-22 -6 -26 -20 -3 -43 -28 -34 -38 2 -1 33 -7 70 -12 l67 -8 11 55 c16 80 17
83 42 79 25 -3 27 -15 13 -99 l-7 -46 64 -7 c62 -7 65 -8 60 -32 -4 -23 -7
-24 -56 -18 -83 11 -81 12 -81 -23 0 -18 -3 -33 -6 -33 -4 0 -10 -12 -13 -26
-5 -19 -2 -30 11 -40 17 -14 17 -14 -2 -12 -11 2 -21 -4 -23 -13 -2 -14 9 -18
57 -24 50 -6 61 -10 61 -25 0 -28 -13 -31 -74 -22 -50 8 -55 7 -60 -12 -3 -11
-1 -25 5 -32 7 -8 6 -13 -3 -16 -7 -3 -18 -27 -24 -54 -9 -44 -13 -49 -35 -46
-13 2 -25 5 -27 7 -1 1 3 26 9 54 10 47 9 54 -8 66 -17 14 -17 14 5 15 15 0
22 6 22 19 0 15 -10 19 -52 25 -29 3 -61 6 -70 6 -20 0 -24 -26 -5 -33 9 -3 8
-8 -4 -18 -22 -19 -31 -47 -16 -52 8 -3 7 -10 -5 -24 -10 -11 -18 -25 -18 -31
0 -13 -29 -16 -46 -4 -9 5 -8 26 2 80 8 41 16 78 19 82 5 8 -23 15 -85 23 -8
1 -17 13 -18 26 -4 23 -3 24 56 17 l59 -7 12 58 c7 32 13 72 14 88 2 28 -1 30
-38 35 -33 4 -41 9 -43 28 -4 23 -1 24 50 20 l53 -3 14 68 c11 51 18 67 28 62
8 -3 21 -5 29 -5z m87 -982 c7 -20 -6 -43 -25 -46 -20 -3 -23 10 -8 39 12 22
26 25 33 7z m-48 -188 c27 -18 28 -20 8 -20 -30 0 -73 17 -73 30 0 16 33 11
65 -10z"/>
<path d="M320 1516 c0 -9 5 -16 10 -16 6 0 10 -4 10 -10 0 -5 -6 -10 -14 -10
-18 0 -33 -43 -17 -48 16 -5 13 -32 -4 -32 -8 0 -15 -9 -15 -19 0 -19 31 -28
115 -35 27 -2 32 31 6 39 -29 9 -26 25 4 25 18 0 25 5 25 20 0 11 -7 23 -15
26 -22 9 -18 24 5 24 19 0 39 25 28 35 -2 2 -34 7 -71 11 -58 6 -67 5 -67 -10z"/>
<path d="M1075 1596 c-57 -25 -146 -151 -182 -256 -28 -84 -26 -288 3 -350 44
-93 156 -170 314 -215 147 -42 183 -56 213 -86 34 -35 36 -81 4 -113 -26 -26
-116 -58 -220 -80 -120 -25 -203 11 -283 122 -52 72 -84 83 -84 30 1 -82 65
-158 180 -212 60 -29 73 -31 175 -31 128 0 197 17 271 68 66 46 109 127 99
186 -8 48 -43 94 -88 118 -17 9 -92 31 -165 49 -147 36 -207 67 -253 132 -33
47 -59 124 -59 177 0 88 77 273 135 324 128 112 311 -31 298 -234 -3 -55 0
-78 14 -105 37 -72 69 -31 79 103 8 104 -8 158 -68 223 -56 60 -119 97 -226
133 -104 35 -114 36 -157 17z"/>
<path d="M4002 1358 c-17 -17 -16 -97 2 -104 37 -14 77 55 59 102 -6 17 -44
19 -61 2z"/>
<path d="M4387 1353 c-43 -11 -97 -175 -117 -354 -7 -57 -20 -122 -29 -144
-16 -37 -105 -135 -122 -135 -4 0 -5 37 -2 83 7 118 -11 325 -30 345 -22 21
-43 9 -67 -37 -19 -39 -20 -47 -9 -188 15 -205 9 -249 -46 -324 -96 -130 -134
-221 -114 -276 17 -49 82 -68 137 -39 70 36 100 104 109 243 6 90 7 94 39 118
18 14 39 25 47 25 8 0 29 10 48 23 l34 23 15 -31 c19 -39 70 -45 134 -16 92
40 98 126 26 346 -48 147 -52 191 -21 279 12 33 21 61 21 63 0 4 -30 2 -53 -4z
m-11 -552 c6 -49 5 -54 -11 -48 -9 4 -27 10 -40 13 -22 5 -22 7 -9 51 8 26 14
65 14 88 0 98 29 33 46 -104z m-356 -323 c-21 -68 -53 -124 -82 -142 -29 -18
-30 0 -3 55 31 61 96 161 102 156 2 -2 -6 -33 -17 -69z"/>
<path d="M2164 1298 c-39 -47 -63 -110 -85 -218 -29 -147 -47 -200 -96 -267
-47 -67 -76 -80 -87 -40 -3 12 -6 69 -5 127 0 96 4 139 25 296 6 45 4 54 -16
72 -36 34 -60 35 -66 2 -6 -26 -9 -27 -43 -23 -97 13 -169 -145 -185 -413 -5
-94 -4 -104 17 -135 50 -74 107 -59 161 42 l30 54 15 -65 c17 -71 26 -77 88
-65 55 10 117 80 174 198 l50 102 -3 -165 -3 -165 29 0 c16 0 32 7 36 15 5 8
15 62 24 120 8 58 24 134 35 170 21 67 58 136 67 127 3 -3 0 -91 -7 -196 -12
-196 -8 -241 24 -241 36 0 47 26 72 174 14 82 34 168 44 190 l18 41 -5 -180
c-5 -208 -3 -215 72 -215 83 0 172 86 238 229 21 46 41 82 43 79 3 -3 1 -70
-3 -149 -10 -159 -5 -177 42 -165 19 5 26 14 30 39 33 218 64 332 101 374 l24
28 -7 -105 c-4 -58 -7 -154 -7 -214 0 -91 3 -110 17 -119 26 -17 56 17 64 72
16 120 47 258 64 290 l19 36 -7 -75 c-4 -41 -7 -124 -7 -183 0 -96 2 -110 19
-123 45 -32 129 -10 185 50 19 20 38 36 42 36 3 0 9 -13 12 -30 8 -38 43 -73
68 -67 10 3 19 3 19 -1 0 -3 -30 -35 -67 -71 -37 -36 -84 -93 -105 -125 -32
-49 -38 -68 -38 -111 0 -66 19 -85 82 -85 91 0 147 65 212 248 l41 116 68 36
c108 59 167 129 167 199 0 30 -21 54 -28 33 -2 -7 -24 -39 -48 -72 -33 -43
-60 -66 -100 -86 -30 -15 -57 -24 -61 -21 -3 4 4 46 17 94 20 80 29 145 46
349 9 92 -3 116 -54 112 -43 -3 -43 -4 -61 -188 -12 -118 -30 -189 -63 -240
l-23 -35 -10 228 c-11 247 -11 247 -69 247 l-29 0 7 -208 6 -209 -29 -39 c-48
-65 -79 -90 -99 -78 -25 16 -26 73 -3 247 21 157 26 243 15 271 -12 31 -55 18
-100 -29 -37 -38 -44 -42 -49 -26 -10 31 -42 54 -68 47 -13 -3 -45 -24 -70
-47 l-47 -41 0 65 c0 82 -23 118 -63 100 -38 -17 -94 -139 -111 -243 -23 -132
-52 -212 -100 -278 -44 -59 -75 -80 -97 -66 -14 8 -7 176 14 347 8 59 11 125
8 145 -5 31 -11 38 -33 40 -22 3 -37 -7 -73 -43 -28 -30 -45 -41 -45 -31 0 22
-36 56 -60 56 -10 0 -44 -20 -73 -44 l-54 -44 0 61 c1 106 -36 137 -89 75z
m-359 -255 c-9 -103 -30 -177 -66 -230 -36 -52 -49 -54 -49 -9 0 46 27 199 42
233 13 32 57 83 71 83 5 0 6 -33 2 -77z m1695 -536 c0 -28 -53 -118 -81 -138
-17 -12 -32 -19 -34 -17 -7 7 41 102 69 136 29 34 46 41 46 19z"/>
<path d="M3874 800 c-26 -10 -40 -70 -24 -100 39 -73 150 -53 150 27 0 63 -62
99 -126 73z"/>
</g>
</svg>
